#!OML:ASF F:\VICON\USERDATA\INSTALL\rory3\rory3.ASF
:FULLY-SPECIFIED
:DEGREES
78
root 0.668214 18.1155 -10.6402 -4.84973 -5.81251 -0.0679814
lowerback 11.4831 1.82039 1.02708
upperback -0.454966 2.60083 0.545941
thorax -6.90842 1.24399 -0.451263
lowerneck -17.9224 -2.91986 -1.35902
upperneck 21.5893 -3.80686 0.44874
head 9.85222 -1.82408 -0.136666
rclavicle 1.04393e-014 -6.95746e-015
rhumerus -28.4467 -17.9254 -78.4855
rradius 27.0213
rwrist 2.43007
rhand -18.4535 23.9487
rfingers 7.12502
rthumb 7.8326 -5.88619
lclavicle 1.04393e-014 -6.95746e-015
lhumerus -36.3232 7.13541 80.9952
lradius 20.132
lwrist 4.83506
lhand -27.425 21.9213
lfingers 7.12502
lthumb -0.830586 51.8995
rfemur -8.28431 0.985191 20.2163
rtibia 69.9064
rfoot 9.37362 -0.639676
rtoes 8.47673
lfemur -10.7736 0.248979 -23.6551
ltibia 22.046
lfoot -5.86052 -5.77236
ltoes 4.19949
79
root 0.677113 18.1476 -10.466 -5.0539 -5.77773 0.194652
lowerback 11.4751 1.73646 0.752181
upperback -0.192333 2.44473 0.500628
thorax -6.63588 1.17924 -0.312246
lowerneck -18.1363 -2.87968 -1.29345
upperneck 21.3119 -3.74777 0.392111
head 9.79027 -1.79814 -0.159856
rclavicle -2.12606e-015 -1.25234e-014
rhumerus -28.0259 -18.6004 -78.3974
rradius 26.1152
rwrist 3.30651
rhand -18.4045 24.2127
rfingers 7.12502
rthumb 7.87993 -5.62041
lclavicle -2.12606e-015 -1.25234e-014
lhumerus -35.8219 6.63735 81.1459
lradius 20.4483
lwrist 4.90797
lhand -27.6562 21.2268
lfingers 7.12502
lthumb -1.05389 51.2039
rfemur -9.54619 0.629147 19.789
rtibia 71.4022
rfoot 8.42004 -1.71376
rtoes 7.32089
lfemur -9.96972 0.156335 -24.0459
ltibia 22.2989
lfoot -6.64225 -5.40985
ltoes 4.48266
80
root 0.680966 18.1451 -10.2977 -5.26575 -5.83375 0.407032
lowerback 11.5047 1.64029 0.383384
upperback 0.0701033 2.26848 0.564186
thorax -6.39255 1.10769 -0.0044691
lowerneck -18.5437 -2.83769 -1.38225
upperneck 21.2556 -3.63754 0.31832
head 9.84519 -1.76118 -0.161538
rclavicle 2.11418e-014 1.98785e-015
rhumerus -27.7239 -18.8395 -78.3263
rradius 25.4785
rwrist 4.19873
rhand -18.4404 24.2365
rfingers 7.12502
rthumb 7.84533 -5.5979
lclavicle 2.11418e-014 1.98785e-015
lhumerus -35.2286 6.6477 81.1493
lradius 20.3967
lwrist 4.96893
lhand -27.9554 17.4036
lfingers 7.12502
lthumb -1.34287 47.3791
rfemur -10.7775 0.516824 19.5094
rtibia 72.7487
rfoot 6.95273 -2.7991
rtoes 6.65916
lfemur -9.01966 0.220586 -24.3675
ltibia 22.3501
lfoot -7.66552 -5.13736
ltoes 3.95938
81
root 0.680549 18.0988 -10.1454 -5.33868 -5.77182 0.643732
lowerback 11.6645 1.5743 0.0202306
upperback 0.0312681 2.13318 0.565883
thorax -6.53716 1.05223 0.219135
lowerneck -18.3132 -2.79071 -1.27274
upperneck 21.1064 -3.55026 0.0927459
head 9.74191 -1.74045 -0.241179
rclavicle 1.51364e-014 -2.22639e-014
rhumerus -28.0683 -19.3042 -78.0757
rradius 25.141
rwrist 5.03223
rhand -18.0147 24.2916
rfingers 7.12502
rthumb 8.25615 -5.52707
lclavicle 1.51364e-014 -2.22639e-014
lhumerus -34.8194 6.4988 81.0795
lradius 20.2985
lwrist 4.82736
lhand -27.9477 17.5531
lfingers 7.12502
lthumb -1.33536 47.5287
rfemur -12.3188 0.362039 19.265
rtibia 74.0669
rfoot 6.19292 -3.7691
rtoes 10.9264
lfemur -8.44019 0.321351 -24.7178
ltibia 22.4529
lfoot -8.28386 -5.06231
ltoes 3.67896
82
root 0.68413 18.1382 -9.98456 -5.37764 -5.54552 0.594678
lowerback 11.8208 1.38374 0.0817108
upperback -0.0467456 1.88837 0.551271
thorax -6.70389 0.929624 0.206062
lowerneck -17.8317 -2.74472 -1.15023
upperneck 20.8492 -3.50502 0.0066986
head 9.55774 -1.72303 -0.275107
rclavicle 2.30792e-014 -1.70955e-014
rhumerus -28.4871 -19.6928 -77.9653
rradius 24.8425
rwrist 5.76862
rhand -17.2705 25.319
rfingers 7.12502
rthumb 8.97429 -4.47016
lclavicle 2.30792e-014 -1.70955e-014
lhumerus -34.4184 6.47117 80.791
lradius 20.1502
lwrist 4.33555
lhand -27.7653 18.8865
lfingers 7.12502
lthumb -1.15928 48.8631
rfemur -13.589 -0.190252 19.2324
rtibia 74.7653
rfoot 5.73961 -4.41487
rtoes 9.03403
lfemur -7.819 0.179395 -24.7332
ltibia 22.4358
lfoot -8.75058 -5.07466
ltoes 3.49728
83
root 0.682772 18.1682 -9.81672 -5.45823 -5.41995 0.499065
lowerback 11.9161 1.24235 0.119411
upperback 0.021171 1.709 0.6066
thorax -6.68506 0.841508 0.273054
lowerneck -18.0494 -2.74476 -1.23353
upperneck 20.9873 -3.47869 0.00196872
head 9.64802 -1.71673 -0.264242
rclavicle -2.29068e-014 -1.41137e-014
rhumerus -28.6727 -20.055 -77.8369
rradius 24.5651
rwrist 6.53652
rhand -16.5883 27.699
rfingers 7.12502
rthumb 9.63254 -2.06076
lclavicle -2.29068e-014 -1.41137e-014
lhumerus -33.859 6.50352 80.6283
lradius 20.0675
lwrist 3.53353
lhand -27.5676 19.6534
lfingers 7.12502
lthumb -0.968336 49.631
rfemur -14.7662 -0.485321 19.3662
rtibia 75.2525
rfoot 4.86371 -4.96569
rtoes 7.31618
lfemur -6.99932 0.0820375 -24.6661
ltibia 22.2237
lfoot -9.1958 -5.07006
ltoes 3.41628
84
root 0.685455 18.1731 -9.65455 -5.60429 -5.48607 0.629241
lowerback 12.4414 1.16985 -0.111239
upperback -0.129309 1.58506 0.640069
thorax -7.14846 0.788332 0.447928
lowerneck -18.0692 -2.68256 -1.32417
upperneck 21.3733 -3.35857 -0.0463925
head 9.78841 -1.67321 -0.253961
rclavicle 2.07481e-014 1.13307e-014
rhumerus -29.2408 -20.391 -77.5278
rradius 24.5165
rwrist 7.76286
rhand -16.4482 26.7762
rfingers 7.12502
rthumb 9.76774 -2.97728
lclavicle 2.07481e-014 1.13307e-014
lhumerus -33.916 6.1793 80.6015
lradius 20.3401
lwrist 3.47923
lhand -27.6102 19.1687
lfingers 7.12502
lthumb -1.00946 49.1461
rfemur -15.9467 -0.574396 19.2356
rtibia 75.5823
rfoot 3.98878 -5.05076
rtoes 7.47039
lfemur -6.05853 -0.129883 -24.8623
ltibia 21.7191
lfoot -9.25082 -4.87836
ltoes 4.55398
